<svg id="图层_1" data-name="图层 1" xmlns="http://www.w3.org/2000/svg" viewBox="0 0 1537.19 1512.17"><defs><style>.cls-1{fill:#fbb03b;}.cls-1,.cls-2,.cls-3{fill-rule:evenodd;}.cls-2{fill:#67cdfd;}.cls-3{fill:#f15a24;}.cls-4,.cls-5,.cls-7{font-size:222px;font-family:Sarasa-UI-HC-Medium, Sarasa UI HC;font-weight:500;}.cls-4{fill:#565248;}.cls-5{fill:#736357;}.cls-6{letter-spacing:-0.02em;}.cls-7{fill:#867466;}</style></defs><title>Full</title><path class="cls-1" d="M1745.32,1038.66h0c0-220.47-99.22-417-259-544l-101.62,218c79.9,81.5,128.32,201.33,128.32,326,0,88.68-24.24,167.78-62.94,237.25l-72.64-93.46-50.83,189.3-53.2,189.35,200.85,7.19,198.44,9.57L1592.81,1470c96.88-117.43,152.51-268.4,152.51-431.38Z" transform="translate(-232.65 -233.45)"/><path class="cls-2" d="M1031.36,1517.92h0c-188.79,0-351-107.83-430.84-266l128.31-7.16L593.26,1098.56,452.93,957.18,344.05,1122.55l-111.4,162.93,123.49-9.57c101.63,273.19,363,469.71,675.22,469.71,91.93,0,179.06-19.19,259-45.57L1150,1501.18c-38.77,12-79.9,16.74-118.63,16.74Z" transform="translate(-232.65 -233.45)"/><path class="cls-3" d="M1031.36,557h14.49l-58,122.22,193.6-45.53L1375,585.73l-92-177.32-89.54-175-46,107.83c-41.17-9.58-77.47-12-116.2-12-348.56,0-634.13,244.42-701.92,568l246.9-24C644.13,688.79,823.22,557,1031.36,557Z" transform="translate(-232.65 -233.45)"/><text class="cls-4" transform="translate(377.69 874.21)">Re</text><text class="cls-5" transform="translate(630.7 874.21)">F<tspan class="cls-6" x="117.22" y="0">r</tspan><tspan x="207.13" y="0">e</tspan></text><text class="cls-7" transform="translate(961.7 874.21)">S</text><text class="cls-7" transform="translate(1083.7 874.21)">H</text></svg>